<svg width="20" height="20" viewBox="0 0 20 20" fill="none" xmlns="http://www.w3.org/2000/svg">
<g id="camera-icon">
<g id="Union">
<path fill-rule="evenodd" clip-rule="evenodd" d="M10.0001 7.22222C8.08243 7.22222 6.52786 8.77679 6.52786 10.6944C6.52786 12.6121 8.08243 14.1667 10.0001 14.1667C11.9177 14.1667 13.4723 12.6121 13.4723 10.6944C13.4723 8.77679 11.9177 7.22222 10.0001 7.22222ZM7.91675 10.6944C7.91675 9.54385 8.84949 8.61111 10.0001 8.61111C11.1507 8.61111 12.0834 9.54385 12.0834 10.6944C12.0834 11.845 11.1507 12.7778 10.0001 12.7778C8.84949 12.7778 7.91675 11.845 7.91675 10.6944Z" fill="#404040"/>
<path fill-rule="evenodd" clip-rule="evenodd" d="M7.91675 3.05556C7.68456 3.05556 7.46773 3.1716 7.33894 3.36479L6.1562 5.13889H3.75008C3.19755 5.13889 2.66764 5.35838 2.27694 5.74908C1.88624 6.13979 1.66675 6.66969 1.66675 7.22222V14.8611C1.66675 15.4136 1.88624 15.9436 2.27694 16.3343C2.66764 16.725 3.19755 16.9444 3.75008 16.9444H16.2501C16.8026 16.9444 17.3325 16.725 17.7232 16.3343C18.1139 15.9436 18.3334 15.4136 18.3334 14.8611V7.22222C18.3334 6.66969 18.1139 6.13979 17.7232 5.74908C17.3325 5.35838 16.8026 5.13889 16.2501 5.13889H13.844L12.6612 3.36479C12.5324 3.1716 12.3156 3.05556 12.0834 3.05556H7.91675ZM7.10567 6.21854L8.2884 4.44445H11.7118L12.8945 6.21854C13.0233 6.41174 13.2401 6.52778 13.4723 6.52778H16.2501C16.4343 6.52778 16.6109 6.60094 16.7411 6.73118C16.8714 6.86141 16.9445 7.03805 16.9445 7.22222V14.8611C16.9445 15.0453 16.8714 15.2219 16.7411 15.3522C16.6109 15.4824 16.4343 15.5556 16.2501 15.5556H3.75008C3.5659 15.5556 3.38927 15.4824 3.25904 15.3522C3.1288 15.2219 3.05564 15.0453 3.05564 14.8611V7.22222C3.05564 7.03805 3.1288 6.86141 3.25904 6.73118C3.38927 6.60094 3.5659 6.52778 3.75008 6.52778H6.52786C6.76005 6.52778 6.97688 6.41174 7.10567 6.21854Z" fill="#404040"/>
</g>
</g>
</svg>
